{"title":"Luther S03","uid":9720481,"size":2354455416,"categoryP":"video","categoryS":"tv_shows","magnet":"?xt=urn:btih:fc02a334f0abd80bbc0cd0a932db11d2638b778c&amp;dn=Luther+S03&amp;tr=udp%3A%2F%2Ftracker.openbittorrent.com%3A80&amp;tr=udp%3A%2F%2Fopen.demonii.com%3A1337&amp;tr=udp%3A%2F%2Ftracker.coppersurfer.tk%3A6969&amp;tr=udp%3A%2F%2Fexodus.desync.com%3A6969","seeders":16,"leechers":5,"uploader":"RedBaron58","files":4,"time":1394227253,"description":"Luther BBC Season 3 (2013) 4 part series of 1 hour episodes Xvid format avi\n  &lt;a href=&quot;\nhttp://www.imdb.com/title/tt1474684/&quot; rel=&quot;nofollow&quot; target=&quot;_NEW&quot;&gt;\nhttp://www.imdb.com/title/tt1474684/&lt;/a&gt;\n\n\nPlease be patient My upload speed is limited, but I am online most the time and during the night.\nThank you for your kind comments and thumbs ups on my other torrents, your feedback is welcome.\n\n\n\nI hope you enjoy.\n\n\nTechnical:\n\nAll Episodes encoded to same settings\n\nGeneral\nComplete name                            : E:Luther S03Luther S03E01 Xvid RB58.avi\nFormat                                   : AVI\nFormat/Info                              : Audio Video Interleave\nFile size                                : 572 MiB\nDuration                                 : 57mn 38s\nOverall bit rate                         : 1 388 Kbps\n\nVideo\nID                                       : 0\nFormat                                   : MPEG-4 Visual\nFormat profile                           : Advanced Simple@L4\nFormat settings, BVOP                    : 2\nFormat settings, QPel                    : No\nFormat settings, GMC                     : No warppoints\nFormat settings, Matrix                  : Default (H.263)\nCodec ID                                 : DIVX\nCodec ID/Info                            : Project Mayo\nCodec ID/Hint                            : DivX 4\nDuration                                 : 57mn 38s\nBit rate                                 : 1 246 Kbps\nWidth                                    : 822 pixels\nHeight                                   : 468 pixels\nDisplay aspect ratio                     : 16:9\nFrame rate                               : 25.000 fps\nColor space                              : YUV\nChroma subsampling                       : 4:2:0\nBit depth                                : 8 bits\nScan type                                : Progressive\nCompression mode                         : Lossy\nBits/(Pixel*Frame)                       : 0.130\nStream size                              : 514 MiB (90%)\nWriting library                          : XviD 64\n\nAudio\nID                                       : 1\nFormat                                   : MPEG Audio\nFormat version                           : Version 1\nFormat profile                           : Layer 3\nCodec ID                                 : 55\nCodec ID/Hint                            : MP3\nDuration                                 : 57mn 38s\nBit rate mode                            : Constant\nBit rate                                 : 128 Kbps\nChannel(s)                               : 2 channels\nSampling rate                            : 48.0 KHz\nCompression mode                         : Lossy\nStream size                              : 52.8 MiB (9%)\nAlignment                                : Aligned on interleaves\nInterleave, duration                     : 24 ms (0.60 video frame)\nWriting library                          : LAME3.99.5","torrent":{"xt":"urn:btih:fc02a334f0abd80bbc0cd0a932db11d2638b778c","amp;dn":"Luther+S03","amp;tr":["udp%3A%2F%2Ftracker.openbittorrent.com%3A80","udp%3A%2F%2Fopen.demonii.com%3A1337","udp%3A%2F%2Ftracker.coppersurfer.tk%3A6969","udp%3A%2F%2Fexodus.desync.com%3A6969"],"infoHash":"fc02a334f0abd80bbc0cd0a932db11d2638b778c","infoHashBuffer":{"type":"Buffer","data":[252,2,163,52,240,171,216,11,188,12,208,169,50,219,17,210,99,139,119,140]},"announce":[],"urlList":[]}}